<?xml version="1.0" standalone="no"?>
<!DOCTYPE svg PUBLIC "-//W3C//DTD SVG 20010904//EN"
 "http://www.w3.org/TR/2001/REC-SVG-20010904/DTD/svg10.dtd">
<svg version="1.0" xmlns="http://www.w3.org/2000/svg"
 width="736.000000pt" height="1280.000000pt" viewBox="0 0 736.000000 1280.000000"
 preserveAspectRatio="xMidYMid meet">
<metadata>
Created by potrace 1.15, written by Peter Selinger 2001-2017
</metadata>
<g transform="translate(0.000000,1280.000000) scale(0.100000,-0.100000)"
fill="#ff5722" stroke="none">
<path d="M4130 12789 c-752 -55 -1507 -308 -2148 -721 -712 -459 -1304 -1102
-1761 -1912 -171 -304 -215 -435 -215 -631 0 -106 3 -128 27 -189 65 -167 197
-272 392 -312 147 -31 356 -3 505 67 86 40 97 51 137 139 479 1050 1166 1787
1947 2089 607 234 1237 192 1702 -115 110 -72 283 -243 351 -344 209 -312 258
-676 145 -1065 -38 -128 -60 -184 -129 -319 -121 -236 -276 -440 -518 -681
-327 -326 -668 -571 -1275 -915 -291 -165 -481 -303 -674 -490 -191 -185 -312
-348 -421 -565 -141 -280 -207 -549 -224 -919 -31 -655 121 -1414 571 -2861
223 -719 255 -811 297 -874 181 -266 404 -452 563 -468 163 -17 279 97 328
323 34 159 30 215 -28 399 -188 591 -340 1220 -407 1682 -44 307 -50 398 -50
708 1 320 10 425 60 645 99 440 326 815 687 1137 164 146 273 226 598 441 463
306 691 470 981 704 944 761 1528 1542 1719 2298 124 492 81 941 -131 1369
-178 361 -490 683 -888 920 -396 236 -864 385 -1396 447 -161 18 -577 26 -745
13z"/>
<path d="M3747 859 c-105 -25 -237 -121 -290 -212 -98 -166 -65 -381 78 -516
232 -220 623 -150 758 136 29 63 32 76 32 168 -1 133 -24 192 -111 285 -67 71
-149 120 -234 139 -54 13 -180 12 -233 0z"/>
</g>
</svg>
